<svg id="Calque_1" data-name="Calque 1" xmlns="http://www.w3.org/2000/svg" viewBox="0 0 275.46 77.75"><defs><clipPath id="clip-path" transform="translate(-26.65 -26.48)"><path fill="none" d="M0 0h328.56v130.77H0z"/></clipPath></defs><path fill="#0082b9" d="M27.8 3.39v6.77l5.87 3.39 5.86-3.39V3.39L33.67 0 27.8 3.39zM0 19.44v6.77l5.87 3.39 5.86-3.39v-6.77l-5.86-3.39L0 19.44zm41.7-8.03v6.78l5.87 3.38 5.87-3.38v-6.78l-5.87-3.38-5.87 3.38zm-24.87 1.7v3.38l2.94 1.7 2.93-1.7v-3.38l-2.93-1.7-2.94 1.7z"/><path fill="#000091" d="M5.87 29.6v-6.78l5.86-3.38v6.77L5.87 29.6z"/><path fill="#00b5e2" d="M41.7 11.41l5.87 3.39 5.87-3.39-5.87-3.38-5.87 3.38z"/><path fill="#0082b9" d="M36.6 24.52v-3.39l-2.93-1.69-2.94 1.69v3.39l2.94 1.69 2.93-1.69zM2.93 37.18v3.39l2.94 1.7 2.93-1.7v-3.39l-2.93-1.69-2.94 1.69zm13.9-8.02v3.38l2.94 1.7 2.93-1.7v-3.38l-2.93-1.7-2.94 1.7zm22.7 13.1v-6.77l-5.86-3.39-5.87 3.39v6.77l5.87 3.39 5.86-3.39zM55.6 19.44v6.77l5.87 3.39 5.87-3.39v-6.77l-5.87-3.39-5.87 3.39zM1.4 52.35v5.16l4.47 2.58 4.47-2.58v-5.16l-4.47-2.58-4.47 2.58zm13.89-8.03v5.16l4.48 2.59 4.47-2.59v-5.16l-4.47-2.58-4.48 2.58zM41.7 27.46v6.78l5.87 3.39 5.87-3.39v-6.78l-5.87-3.38-5.87 3.38z"/><path fill="#000091" d="M47.57 37.63v-6.78l5.87-3.39v6.78l-5.87 3.39z"/><path fill="#00b5e2" d="M1.4 52.35l4.47 2.58 4.47-2.58-4.47-2.58-4.47 2.58zm26.4-16.86l5.87 3.39 5.86-3.39-5.86-3.39-5.87 3.39z"/><path fill="#0082b9" d="M36.6 56.62v-3.39l-2.93-1.69-2.94 1.69v3.39l2.94 1.7 2.93-1.7zm19-21.13v6.77l5.87 3.39 5.87-3.39v-6.77l-5.87-3.39-5.87 3.39zm-10.97 9.72v3.39l2.94 1.69 2.93-1.69v-3.39l-2.93-1.69-2.94 1.69zm-27.8 16.05v3.39l2.94 1.69 2.93-1.69v-3.39l-2.93-1.69-2.94 1.69zm10.97 6.33v6.78l5.87 3.38 5.86-3.38v-6.78l-5.86-3.38-5.87 3.38zm27.8-16.05v6.77l5.87 3.39 5.87-3.39v-6.77l-5.87-3.39-5.87 3.39zm-10.97 9.72v3.39l2.94 1.69 2.93-1.69v-3.39l-2.93-1.69-2.94 1.69z"/><path fill="#000091" d="M33.67 77.75v-6.77l5.86-3.39v6.78l-5.86 3.38z"/><path fill="#00b5e2" d="M55.6 51.54l5.87 3.39 5.87-3.39-5.87-3.39-5.87 3.39z"/><path fill="#000091" d="M83.18 28.01v4.65h-2.6V19.44h10.07v2.39h-7.47v3.79h6.42v2.39h-6.42z"/><g clip-path="url(#clip-path)" fill="#000091"><path d="M119.63 45.92h5.81c2.61 0 5.27 1 5.27 4.3a4.16 4.16 0 01-3.73 4.1c1.24 1.21 2.53 2.66 3.91 2.66a3.94 3.94 0 001.48-.31l.27 2.16a5 5 0 01-2.18.51c-3 0-5.13-3.73-6.79-5h-1.32v4.76h-2.72zm2.72 2.37v3.95h3.38a1.94 1.94 0 002.14-2 1.91 1.91 0 00-2.14-2zm15.96-2.37h3.19l5.11 13.22h-2.76l-1-2.64h-6l-1 2.64H133zm-.78 8.56h4.63l-2.26-5.85z" transform="translate(-26.65 -26.48)"/><path d="M124.42 23.77v8.89h-2.73V19.44h2.38l7.43 8.9v-8.9h2.72v13.22h-2.37l-7.43-8.89z"/><path d="M175.53 57.2a8.22 8.22 0 01-5.43 2.14 6.41 6.41 0 01-6.81-6.79 6.42 6.42 0 016.81-6.83c3.4 0 5.33 1.91 5.4 5l-2.51.52c0-1.85-1-3-2.94-3-2.33 0-3.95 1.56-3.95 4.3s1.61 4.26 4 4.26a6.2 6.2 0 004.08-1.65z" transform="translate(-26.65 -26.48)"/><path d="M151.21 32.66V19.44h10.46v2.39h-7.86v2.86h6.44v2.39h-6.44v3.19h7.86v2.39h-10.46z"/><path d="M121.79 83.07a10.85 10.85 0 01-6.64 2.13c-5.84 0-8.48-3.47-8.48-8.13a7.85 7.85 0 018.22-8.22c4.6 0 7 2.52 7.12 6.17l-4.42 1c-.12-1.72-.8-2.79-2.67-2.79s-3.11 1.57-3.11 3.71a3.65 3.65 0 003.95 3.91 7.35 7.35 0 004.15-1.63zm9.5-14.2a8.17 8.17 0 11-8.29 8.21 8.06 8.06 0 018.34-8.22m0 11.83a3.65 3.65 0 10-3.53-3.62 3.5 3.5 0 003.53 3.62m15.41-11.41v1.54a6.44 6.44 0 014.68-1.82c2.46 0 4 .86 4.83 2.64a6.32 6.32 0 015.35-2.64c4 0 5.64 3.06 5.64 6.85v3.62c0 .77.15 1.42.89 1.42a3.87 3.87 0 001.51-.41l.21 3.94a11.17 11.17 0 01-3.74.65c-2.43 0-3.86-1.22-3.86-4.39v-4c0-2-.92-3.08-2.61-3.08a2.86 2.86 0 00-2.65 1.67v9.52h-5v-8.12c0-2-.86-3.05-2.58-3.05a3 3 0 00-2.73 1.72v9.46h-5V69.28zm25.69 21.09V74.62c0-.83-.15-1.42-1-1.42a3 3 0 00-1.51.42l-.15-4a10.59 10.59 0 013.68-.65c1.75 0 3 .59 3.56 2.1a5.76 5.76 0 014.79-2.07c4.24 0 7.18 3.35 7.18 8.07s-2.94 8-7.18 8a6.32 6.32 0 01-4.39-1.6v6.88zm5-15.9v5.19a4.67 4.67 0 003 1.1 3.71 3.71 0 000-7.42 4.47 4.47 0 00-3 1.13m27.78 8.63a10.46 10.46 0 01-6.58 2.11c-5.84 0-8.51-3.53-8.51-8.13a7.9 7.9 0 018.24-8.22c4.72 0 7 2.91 7 6.47a13.2 13.2 0 01-.32 3h-9.94c.3 1.81 1.57 3 3.86 3a8.36 8.36 0 004.45-1.48zM201 74.8c0-1.25-.83-2.14-2.67-2.14a3 3 0 00-3.17 2.49H201zm-.86-7.3H196l2.4-4.69h4.89zm13.59-2.16v3.95h5.37v3.85h-5.37v5.4c0 1.57.65 2.22 1.84 2.22a5.45 5.45 0 002.91-1l1.51 3.8a11.45 11.45 0 01-6 1.57c-3.23 0-5.22-2-5.22-5.69v-6.3h-2.64v-3.86h2.79l.62-3.95zm21.92 17.76a10.47 10.47 0 01-6.58 2.11c-5.84 0-8.51-3.53-8.51-8.13a7.9 7.9 0 018.24-8.22c4.72 0 7 2.91 7 6.47a13.27 13.27 0 01-.32 3h-9.94c.3 1.81 1.57 3 3.86 3a8.35 8.35 0 004.45-1.48zm-4.21-8.3c0-1.25-.83-2.13-2.67-2.13a3 3 0 00-3.17 2.49h5.85zM243 69.28V71a6.37 6.37 0 014.71-2c4 0 5.69 3.06 5.69 6.85v3.62c0 .77.18 1.42.95 1.42a3.74 3.74 0 001.51-.41l.15 3.94a9.83 9.83 0 01-3.68.65c-2.49 0-3.91-1.22-3.91-4.39v-4c0-2-.92-3.08-2.61-3.08a3.28 3.28 0 00-2.81 1.94v9.25h-5V69.28zm28.55 13.79a10.86 10.86 0 01-6.64 2.13c-5.84 0-8.48-3.47-8.48-8.13a7.85 7.85 0 018.22-8.22c4.6 0 7 2.52 7.12 6.17l-4.42 1c-.12-1.72-.8-2.79-2.67-2.79s-3.11 1.57-3.11 3.71a3.65 3.65 0 003.95 3.91 7.36 7.36 0 004.15-1.63zm16.29.03a10.47 10.47 0 01-6.59 2.11c-5.84 0-8.51-3.53-8.51-8.13a7.9 7.9 0 018.26-8.21c4.71 0 7 2.91 7 6.47a13.27 13.27 0 01-.32 3h-9.94c.3 1.81 1.57 3 3.86 3a8.34 8.34 0 004.4-1.56zm-4.21-8.3c0-1.25-.83-2.13-2.67-2.13a3 3 0 00-3.17 2.49h5.85zm17.2-.68a10.41 10.41 0 00-4.63-1.25c-1 0-1.87.3-1.87 1s.39.8 1.27 1l2.76.74c2.82.77 3.71 2.28 3.71 4.39 0 3-2.37 5-6.47 5a14.12 14.12 0 01-6.11-1.34l.92-3.88a11.42 11.42 0 004.83 1.45c1.16 0 1.84-.24 1.84-.92 0-.5-.59-.77-1.57-1l-2.46-.68c-2.52-.74-3.77-2.13-3.77-4.48 0-3.08 2.7-5.19 7-5.19a16.26 16.26 0 015.79 1.13z" transform="translate(-26.65 -26.48)"/></g></svg>