<svg width="114" height="80" viewBox="0 0 114 80" fill="none" xmlns="http://www.w3.org/2000/svg">
<path fill-rule="evenodd" clip-rule="evenodd" d="M51.0922 56.4292V60.4212H49.7261V54.123H50.9148L53.5806 58.1253V54.123H54.9656V60.4212H53.7572L51.0922 56.4292Z" fill="#333376"/>
<path fill-rule="evenodd" clip-rule="evenodd" d="M29.6549 56.4292V60.4212H28.2896V54.123H29.4775L32.1441 58.1253V54.123H33.5273V60.4212H32.3198L29.6549 56.4292Z" fill="#333376"/>
<path fill-rule="evenodd" clip-rule="evenodd" d="M65.4986 55.4938V60.4225H64.1239V55.4938H62.4985V54.1226H67.0771V55.4938H65.4986Z" fill="#333376"/>
<path fill-rule="evenodd" clip-rule="evenodd" d="M41.5439 60.4223V54.1224H45.8906V55.327H42.8632V56.614H45.3149V57.7819H42.8632V59.2272H45.8906V60.4223H41.5439Z" fill="#333376"/>
<path fill-rule="evenodd" clip-rule="evenodd" d="M22.3823 60.4223V54.1224H26.7289V55.327H23.7016V56.614H26.1533V57.7819H23.7016V59.2272H26.7289V60.4223H22.3823Z" fill="#333376"/>
<path fill-rule="evenodd" clip-rule="evenodd" d="M1.69629 60.4223V54.1224H3.07097V59.2272H5.73676V60.4223H1.69629Z" fill="#333376"/>
<path fill-rule="evenodd" clip-rule="evenodd" d="M58.207 54.1223H59.8043L61.8194 60.4221H60.4541L60.1019 59.1896H57.8728L57.5112 60.4221H56.145L58.207 54.1223ZM58.2163 58.1808H59.7675L59.0051 55.4842L58.2163 58.1808Z" fill="#333376"/>
<path fill-rule="evenodd" clip-rule="evenodd" d="M11.0874 54.1223H12.6855L14.6998 60.4221H13.3345L12.9814 59.1896H10.7531L10.3907 60.4221H9.02539L11.0874 54.1223ZM11.0962 58.1808H12.6474L11.8859 55.4842L11.0962 58.1808Z" fill="#333376"/>
<path fill-rule="evenodd" clip-rule="evenodd" d="M7.12979 55.6416C6.82364 55.5497 6.65649 55.2622 6.65649 54.8811C6.65649 54.3444 6.94559 54.0381 7.43764 54.0381C7.92969 54.0381 8.22646 54.3725 8.22646 54.8811C8.22646 55.5957 7.84527 56.6148 7.5485 57.1328L6.79635 56.8368L7.12979 55.6416Z" fill="#333376"/>
<path fill-rule="evenodd" clip-rule="evenodd" d="M19.9767 55.8551C19.5401 55.4927 19.0753 55.2988 18.6021 55.2988C17.5804 55.2988 16.9767 56.021 16.9767 57.2817C16.9767 58.6155 17.6179 59.245 18.5279 59.245C18.8988 59.245 19.2237 59.1624 19.4753 58.9864V57.8371H18.1927V56.6973H20.7383V59.7647C20.2275 60.1824 19.2519 60.5158 18.4255 60.5158C16.8462 60.5158 15.5645 59.3105 15.5645 57.2817C15.5645 55.2341 16.8462 54.0296 18.4255 54.0296C19.2988 54.0296 19.9767 54.2704 20.5336 54.7612L19.9767 55.8551Z" fill="#333376"/>
<path fill-rule="evenodd" clip-rule="evenodd" d="M40.067 59.6066C39.5835 60.0804 38.7571 60.5151 37.866 60.5151C36.2773 60.5151 35.0791 59.3105 35.0791 57.2817C35.0791 55.2334 36.2773 54.0289 37.866 54.0289C39.2492 54.0289 40.0295 54.7519 40.0576 56.2252L38.8228 56.4668C38.8032 55.6596 38.4595 55.2989 37.8097 55.2989C37.0021 55.2989 36.4819 56.0211 36.4819 57.2817C36.4819 58.5883 37.0379 59.245 37.9871 59.245C38.5627 59.245 39.1469 58.8469 39.5281 58.4769L40.067 59.6066Z" fill="#333376"/>
<mask id="mask0_2380_620" style="mask-type:alpha" maskUnits="userSpaceOnUse" x="88" y="0" width="13" height="12">
<path fill-rule="evenodd" clip-rule="evenodd" d="M88.5947 0H100.605V11.9799H88.5947V0Z" fill="white"/>
</mask>
<g mask="url(#mask0_2380_620)">
<path fill-rule="evenodd" clip-rule="evenodd" d="M94.6 11.9795C91.2887 11.9795 88.5947 9.29229 88.5947 5.98922C88.5947 2.68616 91.2887 -0.0010376 94.6 -0.0010376C97.9113 -0.0010376 100.605 2.68616 100.605 5.98922C100.605 9.29229 97.9113 11.9795 94.6 11.9795ZM94.5991 2.60409C92.7272 2.60409 91.205 4.12335 91.205 5.98967C91.205 7.85599 92.7272 9.37525 94.5991 9.37525C96.4701 9.37525 97.9931 7.85599 97.9931 5.98967C97.9931 4.12335 96.4701 2.60409 94.5991 2.60409Z" fill="#333376"/>
</g>
<mask id="mask1_2380_620" style="mask-type:alpha" maskUnits="userSpaceOnUse" x="0" y="5" width="114" height="39">
<path fill-rule="evenodd" clip-rule="evenodd" d="M0.881836 5.44687H113.711V43.6886H0.881836V5.44687Z" fill="white"/>
</mask>
<g mask="url(#mask1_2380_620)">
<path fill-rule="evenodd" clip-rule="evenodd" d="M113.711 43.6886C107.28 43.6886 103.717 39.0687 101.804 36.5874C101.608 36.3339 101.425 36.0966 101.255 35.8847C100.178 34.5441 96.8074 29.755 93.2376 24.686C90.6904 21.0682 88.0578 17.3279 86.4845 15.1706C82.884 10.2301 80.9312 7.8559 75.9475 7.8559H0.881592V5.44687H75.9475C82.0722 5.44687 84.6842 8.60277 88.4382 13.7543C90.0226 15.9268 92.6611 19.6757 95.2135 23.3011C98.605 28.1166 102.111 33.098 103.14 34.3799C103.319 34.6028 103.511 34.8512 103.717 35.1192C105.61 37.5724 108.469 41.2796 113.711 41.2796V43.6886Z" fill="#16BDCE"/>
</g>
<mask id="mask2_2380_620" style="mask-type:alpha" maskUnits="userSpaceOnUse" x="0" y="5" width="114" height="39">
<path fill-rule="evenodd" clip-rule="evenodd" d="M0.882324 5.44687H113.711V43.6886H0.882324V5.44687Z" fill="white"/>
</mask>
<g mask="url(#mask2_2380_620)">
<path fill-rule="evenodd" clip-rule="evenodd" d="M75.9482 43.6886H0.882324V41.2796H75.9482C80.9319 41.2796 82.8839 38.9054 86.4852 33.9657C88.056 31.8101 90.6877 28.0741 93.2307 24.4597C96.8038 19.3864 100.178 14.593 101.255 13.2507C101.425 13.038 101.608 12.8007 101.804 12.5472C103.718 10.0659 107.281 5.44687 113.712 5.44687V7.8559C108.47 7.8559 105.61 11.563 103.718 14.0171C103.512 14.2834 103.32 14.5326 103.141 14.7547C102.112 16.0391 98.6015 21.0231 95.2074 25.8437C92.6576 29.4666 90.0217 33.2112 88.4381 35.382C84.6833 40.531 82.0712 43.6886 75.9482 43.6886Z" fill="#16BDCE"/>
</g>
<path fill-rule="evenodd" clip-rule="evenodd" d="M50.043 24.5174V30.1435C50.043 31.4221 50.755 31.9631 51.2394 32.1332C50.9827 32.7865 50.3278 33.2127 49.6447 33.2127C48.4764 33.2127 47.7933 32.2753 47.7933 30.9959C47.0233 32.0192 45.5701 33.3837 43.1491 33.3837C40.0441 33.3837 38.1919 31.65 38.1919 29.093C38.1919 26.336 40.3852 24.5174 43.9465 24.5174C45.9982 24.5174 46.9371 25.0005 47.6782 25.2566V24.0061C47.6782 21.6192 46.3965 20.823 44.1179 20.823C42.408 20.823 40.9839 21.6464 40.1857 22.7548C39.5589 22.6698 38.9901 22.3576 38.9901 21.6464C38.9901 20.2258 41.2406 18.9184 44.0036 18.9184C47.8778 18.9184 50.043 20.7379 50.043 24.5174ZM40.5289 28.979C40.5289 30.4846 41.6674 31.5079 43.5478 31.5079C45.9125 31.5079 47.6786 29.7463 47.6786 27.6145V27.0744C46.7107 26.6491 45.429 26.279 44.004 26.279C41.8388 26.279 40.5289 27.3593 40.5289 28.979Z" fill="#333376"/>
<path fill-rule="evenodd" clip-rule="evenodd" d="M23.8638 19.1461C24.604 19.1461 24.9459 19.4591 24.9459 20.2255V21.6189C25.5727 20.3965 27.1393 18.8909 29.3335 18.8909C32.0973 18.8909 34.5755 20.3684 34.5755 24.631V32.0759C34.5755 32.844 34.2617 33.1554 33.4925 33.1554H33.2648C32.5527 33.1554 32.2108 32.844 32.2108 32.0759V24.7161C32.2108 21.789 30.8438 20.8797 28.8201 20.8797C26.4844 20.8797 24.9741 22.8685 24.9741 25.8526V32.0759C24.9741 32.844 24.633 33.1554 23.8638 33.1554H23.6642C22.895 33.1554 22.582 32.844 22.582 32.0759V20.2255C22.582 19.4591 22.9521 19.1461 23.6642 19.1461H23.8638Z" fill="#333376"/>
<path fill-rule="evenodd" clip-rule="evenodd" d="M65.0539 21.3063C65.0539 22.0735 64.5405 22.4427 63.8284 22.5278C63.4873 21.7886 62.1757 20.852 60.1819 20.852C57.8172 20.852 55.7671 22.4997 55.7671 26.166C55.7671 29.8025 57.9315 31.4511 60.1257 31.4511C62.3472 31.4511 63.4012 30.6549 63.9708 29.6043C64.6548 29.6043 65.2526 30.0586 65.2526 30.7689C65.2526 32.0193 63.373 33.3837 60.3534 33.3837C56.9064 33.3837 53.3452 31.3371 53.3452 26.166C53.3452 20.8231 57.0488 18.8904 60.3534 18.8904C63.373 18.8904 65.0539 20.2549 65.0539 21.3063Z" fill="#333376"/>
<path fill-rule="evenodd" clip-rule="evenodd" d="M43.1482 33.8471C39.8547 33.8471 37.7271 31.9817 37.7271 29.0929C37.7271 26.0314 40.1686 24.0545 43.9455 24.0545C45.5504 24.0545 46.5124 24.3386 47.2134 24.5921V24.006C47.2134 22.0486 46.3452 21.2865 44.1169 21.2865C42.6757 21.2865 41.3462 21.9364 40.5625 23.026L40.3988 23.2532L40.1225 23.214C39.1222 23.0779 38.5244 22.4918 38.5244 21.6471C38.5244 19.9178 41.0333 18.4555 44.0027 18.4555C48.2572 18.4555 50.506 20.5515 50.506 24.5181V30.1434C50.506 31.2637 51.1251 31.6023 51.3928 31.6967L51.8465 31.8558L51.6708 32.3023C51.3485 33.1232 50.5341 33.6761 49.6438 33.6761C48.5932 33.6761 47.8035 33.056 47.4837 32.0574C46.5439 32.9914 45.1394 33.8471 43.1482 33.8471ZM43.9455 24.9808C40.6828 24.9808 38.6557 26.5562 38.6557 29.0928C38.6557 31.4542 40.3775 32.9207 43.1482 32.9207C45.3108 32.9207 46.6659 31.723 47.4206 30.7184L48.2563 29.6066V30.9957C48.2563 31.8447 48.6204 32.7498 49.6438 32.7498C50.0071 32.7498 50.3559 32.5822 50.5904 32.3142C50.1324 31.9995 49.5781 31.3641 49.5781 30.1434V24.518C49.5781 21.1104 47.702 19.3827 44.0026 19.3827C41.3991 19.3827 39.4531 20.5778 39.4531 21.6471C39.4531 21.7645 39.4531 22.0937 39.9929 22.2451C40.9659 21.0593 42.4838 20.3601 44.1169 20.3601C45.8446 20.3601 48.142 20.7378 48.142 24.006V25.9072L47.5255 25.6945C47.4146 25.6562 47.2995 25.612 47.1767 25.5669C46.4808 25.3049 45.6153 24.9808 43.9455 24.9808ZM43.546 31.9714C41.4627 31.9714 40.0624 30.7686 40.0624 28.9788C40.0624 27.0572 41.6094 25.8161 44.0023 25.8161C45.6259 25.8161 46.9989 26.2704 47.8645 26.6506L48.1416 26.7723V27.6152C48.1416 30.0583 46.1231 31.9714 43.546 31.9714ZM44.0022 26.7425C42.1448 26.7425 40.991 27.6 40.991 28.9789C40.991 30.254 41.9709 31.0451 43.546 31.0451C45.602 31.0451 47.2129 29.5377 47.2129 27.6153V27.3822C46.4284 27.0683 45.3035 26.7425 44.0022 26.7425Z" fill="#333376"/>
<path fill-rule="evenodd" clip-rule="evenodd" d="M33.4929 33.6194H33.2652C32.2717 33.6194 31.7473 33.0861 31.7473 32.0764V24.7157C31.7473 21.7436 30.2677 21.3429 28.8205 21.3429C26.7662 21.3429 25.4393 23.114 25.4393 25.853V32.0764C25.4393 32.7807 25.1664 33.6194 23.8642 33.6194H23.6646C22.6387 33.6194 22.1177 33.0997 22.1177 32.0764V20.226C22.1177 19.2307 22.6669 18.6829 23.6646 18.6829H23.8642C24.8602 18.6829 25.3949 19.2001 25.4103 20.1801C26.3389 19.1967 27.7128 18.4277 29.3339 18.4277C31.0497 18.4277 35.0398 19.0317 35.0398 24.6307V32.0764C35.0398 33.0997 34.5196 33.6194 33.4929 33.6194ZM28.8204 20.4166C31.3779 20.4166 32.6758 21.8635 32.6758 24.7158V32.0764C32.6758 32.6038 32.8225 32.6931 33.2651 32.6931H33.4928C34.007 32.6931 34.1111 32.5894 34.1111 32.0764V24.6307C34.1111 20.0398 31.1178 19.3541 29.3338 19.3541C27.1993 19.3541 25.8314 20.91 25.3607 21.8304L24.4823 23.5427V20.2261C24.4823 19.731 24.3604 19.6102 23.8641 19.6102H23.6645C23.1793 19.6102 23.0463 19.742 23.0463 20.2261V32.0764C23.0463 32.5894 23.1511 32.6931 23.6645 32.6931H23.8641C24.3894 32.6931 24.5105 32.5775 24.5105 32.0764V25.8531C24.5105 22.6019 26.2433 20.4166 28.8204 20.4166Z" fill="#333376"/>
<path fill-rule="evenodd" clip-rule="evenodd" d="M60.3538 33.8471C56.9068 33.8471 52.8809 31.8353 52.8809 26.1657C52.8809 20.4545 56.9068 18.4274 60.3538 18.4274C63.544 18.4274 65.5191 19.9228 65.5191 21.3068C65.5191 22.2374 64.9085 22.8661 63.8843 22.9886L63.5491 23.0286L63.4076 22.7223C63.1372 22.1379 61.9578 21.3153 60.1824 21.3153C58.2721 21.3153 56.2314 22.5896 56.2314 26.1657C56.2314 29.7257 58.3293 30.9881 60.1261 30.9881C62.4269 30.9881 63.1893 30.0728 63.5619 29.3846L63.6941 29.1413H63.9713C64.9665 29.1413 65.7177 29.8405 65.7177 30.7694C65.7177 32.281 63.7112 33.8471 60.3538 33.8471ZM60.354 19.3546C57.1902 19.3546 53.8106 21.1426 53.8106 26.1657C53.8106 31.1454 57.1902 32.9207 60.354 32.9207C63.2091 32.9207 64.7893 31.6481 64.7893 30.7694C64.7893 30.4028 64.5284 30.1757 64.218 30.0983C63.4274 31.3198 62.0852 31.9144 60.1263 31.9144C57.7249 31.9144 55.303 30.1374 55.303 26.1657C55.303 21.9014 57.9313 20.389 60.1826 20.389C62.0306 20.389 63.4522 21.1605 64.061 22.0112C64.5241 21.8725 64.5898 21.568 64.5898 21.3068C64.5898 20.6059 63.1742 19.3546 60.354 19.3546Z" fill="#333376"/>
<path fill-rule="evenodd" clip-rule="evenodd" d="M71.4059 15.3671C72.1453 15.3671 72.4881 15.6793 72.4881 16.4177V19.2308H76.4194C77.1886 19.2308 77.5306 19.6008 77.5306 20.198C77.5306 20.8513 77.1315 21.1643 76.4194 21.1643H72.4881V28.3259C72.4881 30.8259 73.5421 31.5643 75.223 31.5643C75.8779 31.5643 76.8466 31.3091 77.2458 30.911C77.7011 31.0531 77.9578 31.4784 77.9578 31.8765C77.9578 32.7297 76.5047 33.383 74.7676 33.383C72.1751 33.383 70.1233 32.1325 70.1233 28.3259V21.1643H68.7273C67.9581 21.1643 67.5317 20.9933 67.5317 20.198C67.5317 19.4596 67.9581 19.2308 68.7273 19.2308H70.1233V16.4177C70.1233 15.6793 70.4943 15.3671 71.2064 15.3671H71.4059Z" fill="#333376"/>
<path fill-rule="evenodd" clip-rule="evenodd" d="M74.767 33.8471C72.4372 33.8471 69.6589 32.8884 69.6589 28.3264V21.6275H68.7268C68.2731 21.6275 67.0664 21.6275 67.0664 20.1976C67.0664 19.2491 67.625 18.7677 68.7268 18.7677H69.6589V16.4182C69.6589 15.4416 70.208 14.9032 71.2058 14.9032H71.4053C72.6837 14.9032 72.9523 15.7274 72.9523 16.4182V18.7677H76.4188C77.4055 18.7677 77.9948 19.3027 77.9948 20.1976C77.9948 21.0933 77.4055 21.6275 76.4188 21.6275H72.9523V28.3264C72.9523 30.6291 73.8605 31.1012 75.2224 31.1012C75.8262 31.1012 76.6499 30.8503 76.9169 30.5832L77.1156 30.385L77.3833 30.4692C77.9948 30.6597 78.422 31.239 78.422 31.877C78.422 32.9998 76.8512 33.8471 74.767 33.8471ZM68.7264 19.6957C67.9948 19.6957 67.9948 19.9058 67.9948 20.1976C67.9948 20.554 67.9948 20.7012 68.7264 20.7012H70.5881V28.3264C70.5881 31.4168 71.9551 32.9208 74.7667 32.9208C76.4305 32.9208 77.493 32.3032 77.493 31.877C77.493 31.735 77.4257 31.5699 77.296 31.4585C76.7409 31.8192 75.8676 32.0276 75.2221 32.0276C73.0697 32.0276 72.0233 30.8163 72.0233 28.3264V20.7012H76.4185C77.0155 20.7012 77.0649 20.4639 77.0649 20.1976C77.0649 19.9433 77.0146 19.6957 76.4185 19.6957H72.0233V16.4182C72.0233 15.9776 71.9338 15.8312 71.405 15.8312H71.2055C70.7262 15.8312 70.5881 15.9622 70.5881 16.4182V19.6957H68.7264Z" fill="#333376"/>
<path fill-rule="evenodd" clip-rule="evenodd" d="M10.9326 13.8897C12.158 13.8897 12.3004 14.4001 12.8982 15.4804C15.6621 20.4533 17.6849 26.0803 19.3648 31.7346C19.5363 32.4168 19.5934 33.156 18.5683 33.156H17.8836C16.8014 33.156 16.7161 32.2756 16.4023 31.1664C15.975 29.6046 15.5478 28.0972 15.0634 26.6766H6.45973C6.00349 28.0972 5.5771 29.6046 5.14986 31.1664C4.83604 32.2756 4.75076 33.156 3.66773 33.156H2.98465C1.95876 33.156 2.0159 32.4168 2.1873 31.7346C3.86728 26.0803 5.89093 20.4533 8.65393 15.4804C9.25173 14.4001 9.39414 13.8897 10.6196 13.8897H10.9326ZM7.17245 24.6308H14.3793C13.3543 21.8177 12.0725 19.2309 10.7618 16.5888C9.28052 19.2037 8.19749 21.8177 7.17245 24.6308Z" fill="#333376"/>
<path fill-rule="evenodd" clip-rule="evenodd" d="M18.5683 33.6195H17.8844C16.5745 33.6195 16.3008 32.586 16.0594 31.6741C16.027 31.5499 15.9921 31.4231 15.9554 31.293C15.5836 29.9285 15.1785 28.4918 14.73 27.1401H6.79995C6.35395 28.5573 5.94376 30.0247 5.59753 31.2887C5.56001 31.4223 5.52675 31.549 5.4935 31.6732C5.25301 32.5859 4.97927 33.6195 3.66855 33.6195H2.98462C2.47807 33.6195 2.10284 33.4672 1.86918 33.1686C1.51954 32.7221 1.61505 32.1079 1.737 31.6222C3.76491 24.7983 5.83205 19.6042 8.24797 15.2566L8.41 14.958C8.89182 14.0682 9.2389 13.426 10.6196 13.426H10.9325C12.3149 13.426 12.6628 14.0691 13.1429 14.958L13.305 15.2574C15.72 19.6017 17.7863 24.7957 19.8108 31.6035C19.9379 32.1087 20.0325 32.7229 19.6837 33.1695C19.4501 33.4672 19.0749 33.6195 18.5683 33.6195ZM6.12113 26.2137H15.3968L15.5034 26.5276C16.0023 27.9933 16.4457 29.5644 16.8508 31.0445C16.8883 31.1772 16.9233 31.3091 16.9574 31.4375C17.2269 32.4549 17.3437 32.6931 17.8844 32.6931H18.5683C18.7619 32.6931 18.906 32.6582 18.9512 32.5995C18.9947 32.5434 19.0476 32.3741 18.9145 31.8476C16.9165 25.1257 14.8732 19.9904 12.4922 15.7048L12.3251 15.3986C11.8689 14.5539 11.7606 14.3531 10.9325 14.3531H10.6195C9.79235 14.3531 9.68405 14.553 9.22781 15.3969L9.06066 15.7048C6.678 19.9929 4.63559 25.1283 2.63241 31.8654C2.5062 32.3741 2.55822 32.5425 2.60086 32.5987C2.64691 32.6582 2.79103 32.6931 2.98461 32.6931H3.66854C4.2092 32.6931 4.32689 32.4549 4.59551 31.4367C4.62962 31.3091 4.66459 31.1764 4.70296 31.0411C5.07648 29.6742 5.52675 28.0673 6.01795 26.5361L6.12113 26.2137ZM15.0441 25.0943H6.5095L6.73634 24.4724C7.60617 22.0872 8.71735 19.2588 10.3581 16.3607L10.7896 15.5993L11.1785 16.3828C12.4585 18.9636 13.7811 21.6313 14.8173 24.4724L15.0441 25.0943ZM7.83762 24.1679H13.7116C12.8426 21.8924 11.8218 19.7777 10.7396 17.5907C9.49287 19.913 8.57698 22.1765 7.83762 24.1679Z" fill="#333376"/>
<mask id="mask3_2380_620" style="mask-type:alpha" maskUnits="userSpaceOnUse" x="0" y="0" width="114" height="80">
<path fill-rule="evenodd" clip-rule="evenodd" d="M0.881836 80H113.711V0H0.881836V80Z" fill="white"/>
</mask>
<g mask="url(#mask3_2380_620)">
<path fill-rule="evenodd" clip-rule="evenodd" d="M76.7712 75.3768V79.9252H76.2818V75.3768H74.647V74.8885H78.3088V75.3768H76.7712Z" fill="#333376"/>
<path fill-rule="evenodd" clip-rule="evenodd" d="M42.1072 75.3768V79.9252H41.6168V75.3768H39.9829V74.8885H43.6439V75.3768H42.1072Z" fill="#333376"/>
<path fill-rule="evenodd" clip-rule="evenodd" d="M97.3028 79.9252H97.7931V74.8885H97.3028V79.9252Z" fill="#333376"/>
<path fill-rule="evenodd" clip-rule="evenodd" d="M44.6866 79.9252H45.1769V74.8885H44.6866V79.9252Z" fill="#333376"/>
<path fill-rule="evenodd" clip-rule="evenodd" d="M38.4581 79.9252H38.9493V74.8885H38.4581V79.9252Z" fill="#333376"/>
<path fill-rule="evenodd" clip-rule="evenodd" d="M87.9634 74.8884H88.4827L89.9981 79.4215L91.5954 74.8884H92.1147L90.2881 79.9259H89.7013L87.9634 74.8884Z" fill="#333376"/>
<path fill-rule="evenodd" clip-rule="evenodd" d="M93.9364 74.8884H94.4856L96.2235 79.9259H95.7409L95.3247 78.6959H93.0299L92.5924 79.9259H92.1021L93.9364 74.8884ZM93.1634 78.3097H95.1914L94.203 75.3843L93.1634 78.3097Z" fill="#333376"/>
<path fill-rule="evenodd" clip-rule="evenodd" d="M85.5995 74.8884H86.1495L87.8875 79.9259H87.4048L86.9886 78.6959H84.6938L84.2555 79.9259H83.7651L85.5995 74.8884ZM84.828 78.3097H86.8551L85.8676 75.3843L84.828 78.3097Z" fill="#333376"/>
<path fill-rule="evenodd" clip-rule="evenodd" d="M79.3442 74.8884H81.2238C82.0475 74.8884 82.7306 75.443 82.7306 76.4808C82.7306 77.4216 82.0475 78.0136 81.2528 78.0281C81.6834 78.5547 82.2335 79.5703 82.8492 79.5703C83.0206 79.5703 83.2286 79.4963 83.3915 79.3994L83.4512 79.8068C83.2721 79.9106 83.0052 79.9999 82.7451 79.9999C81.7798 79.9999 81.0967 78.3701 80.6285 78.0281H79.8346V79.9259H79.3442V74.8884ZM79.8338 77.6292H81.1104C81.7202 77.6292 82.2404 77.2132 82.2404 76.4808C82.2404 75.6871 81.7202 75.3256 81.1104 75.3256H79.8338V77.6292Z" fill="#333376"/>
<path fill-rule="evenodd" clip-rule="evenodd" d="M63.7085 74.8884H65.3799C66.6497 74.8952 67.6006 75.7773 67.6006 77.4139C67.6006 79.0361 66.6497 79.9259 65.3799 79.9259H63.7085V74.8884ZM65.3277 79.4878C66.3749 79.4878 67.1023 78.7631 67.1023 77.414C67.1023 76.0512 66.3749 75.3256 65.3277 75.3256H64.1986V79.4878H65.3277Z" fill="#333376"/>
<path fill-rule="evenodd" clip-rule="evenodd" d="M52.7634 75.7024V79.9259H52.2808V74.8884H52.7114L55.6893 79.1254V74.8884H56.1797V79.9259H55.7413L52.7634 75.7024Z" fill="#333376"/>
<path fill-rule="evenodd" clip-rule="evenodd" d="M33.2134 74.8884H34.884C36.1538 74.8952 37.1046 75.7773 37.1046 77.4139C37.1046 79.0361 36.1538 79.9259 34.884 79.9259H33.2134V74.8884ZM34.8323 79.4878C35.8804 79.4878 36.6078 78.7631 36.6078 77.414C36.6078 76.0512 35.8804 75.3256 34.8323 75.3256H33.7041V79.4878H34.8323Z" fill="#333376"/>
<path fill-rule="evenodd" clip-rule="evenodd" d="M28.1755 75.7024V79.9259H27.6929V74.8884H28.1235L31.1006 79.1254V74.8884H31.5918V79.9259H31.1535L28.1755 75.7024Z" fill="#333376"/>
<path fill-rule="evenodd" clip-rule="evenodd" d="M1.66968 74.8884H3.34027C4.61006 74.8952 5.56091 75.7773 5.56091 77.4139C5.56091 79.0361 4.61006 79.9259 3.34027 79.9259H1.66968V74.8884ZM3.28847 79.4878C4.33654 79.4878 5.06396 78.7631 5.06396 77.414C5.06396 76.0512 4.33654 75.3256 3.28847 75.3256H2.16025V79.4878H3.28847Z" fill="#333376"/>
<path fill-rule="evenodd" clip-rule="evenodd" d="M99.4214 79.9258V74.8874H99.9117V79.4877H102.355V79.9258H99.4214Z" fill="#333376"/>
<path fill-rule="evenodd" clip-rule="evenodd" d="M68.9556 79.9258V74.8874H72.2388V75.3255H69.4237V77.0804H71.7774V77.5185H69.4237V79.4877H72.2388V79.9258H68.9556Z" fill="#333376"/>
<path fill-rule="evenodd" clip-rule="evenodd" d="M6.91602 79.9258V74.8874H10.1984V75.3255H7.38419V77.0804H9.73872V77.5185H7.38419V79.4877H10.1984V79.9258H6.91602Z" fill="#333376"/>
<path fill-rule="evenodd" clip-rule="evenodd" d="M57.6903 79.1175C57.9657 79.3106 58.4774 79.5479 59.0129 79.5479C59.696 79.5479 60.223 79.1847 60.223 78.5399C60.223 78.0882 59.9331 77.8364 59.3472 77.674L58.4621 77.4213C57.8685 77.2435 57.4976 76.8667 57.4976 76.2287C57.4976 75.4955 58.0621 74.8209 59.1835 74.8209C59.7472 74.8209 60.3271 75.0063 60.6469 75.2062L60.4976 75.6511C60.2077 75.4436 59.6585 75.2726 59.198 75.2726C58.3665 75.2726 57.9802 75.7098 57.9802 76.1989C57.9802 76.6285 58.2327 76.8735 58.671 76.9917L59.5621 77.258C60.2972 77.4809 60.7211 77.8288 60.7211 78.5178C60.7211 79.4067 60.044 79.9996 59.0274 79.9996C58.4186 79.9996 57.8463 79.7623 57.5718 79.5777L57.6903 79.1175Z" fill="#333376"/>
<path fill-rule="evenodd" clip-rule="evenodd" d="M11.4042 79.1175C11.6787 79.3106 12.1913 79.5479 12.726 79.5479C13.409 79.5479 13.9361 79.1847 13.9361 78.5399C13.9361 78.0882 13.647 77.8364 13.0603 77.674L12.1768 77.4213C11.5824 77.2435 11.2114 76.8667 11.2114 76.2287C11.2114 75.4955 11.7751 74.8209 12.8974 74.8209C13.4611 74.8209 14.0409 75.0063 14.3599 75.2062L14.2115 75.6511C13.9224 75.4436 13.3724 75.2726 12.9127 75.2726C12.0804 75.2726 11.6932 75.7098 11.6932 76.1989C11.6932 76.6285 11.9465 76.8735 12.3849 76.9917L13.276 77.258C14.0111 77.4809 14.4341 77.8288 14.4341 78.5178C14.4341 79.4067 13.7587 79.9996 12.7413 79.9996C12.1324 79.9996 11.5602 79.7623 11.2856 79.5777L11.4042 79.1175Z" fill="#333376"/>
<path fill-rule="evenodd" clip-rule="evenodd" d="M48.7208 74.8136C50.0204 74.8136 50.9338 75.8582 50.9338 77.4141C50.9338 78.9546 50.0204 80 48.7208 80C47.428 80 46.5146 78.9546 46.5146 77.4141C46.5146 75.8582 47.428 74.8136 48.7208 74.8136ZM48.7199 79.533C49.7228 79.533 50.4502 78.7479 50.4502 77.4141C50.4502 76.0649 49.7228 75.2807 48.7199 75.2807C47.717 75.2807 46.9964 76.0649 46.9964 77.4141C46.9964 78.7479 47.717 79.533 48.7199 79.533Z" fill="#333376"/>
<path fill-rule="evenodd" clip-rule="evenodd" d="M24.1324 74.8136C25.432 74.8136 26.3454 75.8582 26.3454 77.4141C26.3454 78.9546 25.432 80 24.1324 80C22.8404 80 21.9263 78.9546 21.9263 77.4141C21.9263 75.8582 22.8404 74.8136 24.1324 74.8136ZM24.1323 79.533C25.1352 79.533 25.8634 78.7479 25.8634 77.4141C25.8634 76.0649 25.1352 75.2807 24.1323 75.2807C23.1294 75.2807 22.4088 76.0649 22.4088 77.4141C22.4088 78.7479 23.1294 79.533 24.1323 79.533Z" fill="#333376"/>
<path fill-rule="evenodd" clip-rule="evenodd" d="M21.085 79.2139C20.6995 79.629 20.0378 79.9999 19.3249 79.9999C18.0551 79.9999 17.1494 79.0361 17.1494 77.4148C17.1494 75.7764 18.0551 74.8135 19.3249 74.8135C20.4241 74.8135 21.0551 75.3919 21.0782 76.5701L20.6322 76.6509C20.6168 75.7109 20.1486 75.272 19.3095 75.272C18.3066 75.272 17.6389 76.058 17.6389 77.4148C17.6389 78.7699 18.322 79.5406 19.3615 79.5406C19.9406 79.5406 20.5273 79.1773 20.8624 78.8209L21.085 79.2139Z" fill="#333376"/>
<path fill-rule="evenodd" clip-rule="evenodd" d="M12.1544 68.1712C12.1544 69.1724 12.5629 69.8308 13.5129 69.8308C14.4723 69.8308 14.8876 69.1129 14.8876 68.1644V65.165H15.3702V68.1942C15.3702 69.3349 14.7827 70.2893 13.5129 70.2893C12.2508 70.2893 11.6641 69.431 11.6641 68.1942V65.165H12.1544V68.1712Z" fill="#333376"/>
<path fill-rule="evenodd" clip-rule="evenodd" d="M43.7949 70.2015V65.1648H44.2853V69.7642H46.7285V70.2015H43.7949Z" fill="#333376"/>
<path fill-rule="evenodd" clip-rule="evenodd" d="M23.6426 70.2015V65.1648H24.1321V69.7642H26.577V70.2015H23.6426Z" fill="#333376"/>
<path fill-rule="evenodd" clip-rule="evenodd" d="M68.3912 70.2014H68.8815V65.1647H68.3912V70.2014Z" fill="#333376"/>
<path fill-rule="evenodd" clip-rule="evenodd" d="M47.7403 70.2014H48.2306V65.1647H47.7403V70.2014Z" fill="#333376"/>
<path fill-rule="evenodd" clip-rule="evenodd" d="M37.0678 65.979L35.3076 68.5267H35.1968L33.4366 65.979V70.2017H32.9463V65.1641H33.4213L35.2479 67.8232L37.0831 65.1641H37.5504V70.2017H37.0678V65.979Z" fill="#333376"/>
<path fill-rule="evenodd" clip-rule="evenodd" d="M61.5897 65.164H62.1397L63.8786 70.2015H63.395L62.9797 68.9724H60.684L60.2457 70.2015H59.7554L61.5897 65.164ZM60.8184 68.587H62.8454L61.8579 65.6599L60.8184 68.587Z" fill="#333376"/>
<path fill-rule="evenodd" clip-rule="evenodd" d="M65.8118 65.6525V70.2018H65.3214V65.6525H63.6875V65.1643H67.3485V65.6525H65.8118Z" fill="#333376"/>
<path fill-rule="evenodd" clip-rule="evenodd" d="M76.468 65.979V70.2017H75.9854V65.1641H76.416L79.3939 69.4012V65.1641H79.8843V70.2017H79.4468L76.468 65.979Z" fill="#333376"/>
<path fill-rule="evenodd" clip-rule="evenodd" d="M55.3354 65.164H57.2141C58.0379 65.164 58.721 65.7195 58.721 66.7564C58.721 67.6981 58.0379 68.291 57.244 68.3046C57.6746 68.832 58.2238 69.8468 58.8404 69.8468C59.0109 69.8468 59.219 69.772 59.3827 69.6758L59.4424 70.0824C59.2634 70.1862 58.9956 70.2764 58.7363 70.2764C57.771 70.2764 57.0879 68.6466 56.6197 68.3046H55.8249V70.2015H55.3354V65.164ZM55.8246 67.9057H57.102C57.7118 67.9057 58.232 67.4897 58.232 66.7564C58.232 65.9636 57.7118 65.6013 57.102 65.6013H55.8246V67.9057Z" fill="#333376"/>
<path fill-rule="evenodd" clip-rule="evenodd" d="M16.9482 65.164H18.8269C19.6524 65.164 20.3355 65.7195 20.3355 66.7564C20.3355 67.6981 19.6524 68.291 18.8576 68.3046C19.2883 68.832 19.8375 69.8468 20.454 69.8468C20.6246 69.8468 20.8327 69.772 20.9955 69.6758L21.0552 70.0824C20.8779 70.1862 20.6101 70.2764 20.35 70.2764C19.3846 70.2764 18.7016 68.6466 18.2334 68.3046H17.4386V70.2015H16.9482V65.164ZM17.4381 67.9057H18.7156C19.3245 67.9057 19.8438 67.4897 19.8438 66.7564C19.8438 65.9636 19.3245 65.6013 18.7156 65.6013H17.4381V67.9057Z" fill="#333376"/>
<path fill-rule="evenodd" clip-rule="evenodd" d="M1.66968 65.164H3.51936C4.32182 65.164 5.04839 65.7195 5.04839 66.9274C5.04839 68.0162 4.32182 68.6602 3.51936 68.6602H2.16003V70.2015H1.66968V65.164ZM2.16025 65.6013V68.2246H3.42321C4.03124 68.2246 4.55144 67.7423 4.55144 66.9274C4.55144 66.024 4.03124 65.6013 3.42321 65.6013H2.16025Z" fill="#333376"/>
<path fill-rule="evenodd" clip-rule="evenodd" d="M27.3652 65.905C27.1503 65.8829 27.0454 65.7272 27.0454 65.5273C27.0454 65.2517 27.1801 65.1054 27.4172 65.1054C27.6551 65.1054 27.7967 65.29 27.7967 65.5273C27.7967 65.9569 27.499 66.8084 27.3575 67.0755L27.0692 66.9496L27.3652 65.905Z" fill="#333376"/>
<path fill-rule="evenodd" clip-rule="evenodd" d="M29.579 65.164H30.129L31.867 70.2015H31.3834L30.9681 68.9724H28.6733L28.235 70.2015H27.7446L29.579 65.164ZM28.8071 68.587H30.8341L29.8466 65.6599L28.8071 68.587Z" fill="#333376"/>
<path fill-rule="evenodd" clip-rule="evenodd" d="M72.4244 65.0901C73.724 65.0901 74.6382 66.1347 74.6382 67.6905C74.6382 69.2311 73.724 70.2757 72.4244 70.2757C71.1316 70.2757 70.2183 69.2311 70.2183 67.6905C70.2183 66.1347 71.1316 65.0901 72.4244 65.0901ZM72.4246 69.8096C73.4275 69.8096 74.1558 69.0236 74.1558 67.6906C74.1558 66.3415 73.4275 65.5572 72.4246 65.5572C71.4218 65.5572 70.7012 66.3415 70.7012 67.6906C70.7012 69.0236 71.4218 69.8096 72.4246 69.8096Z" fill="#333376"/>
<path fill-rule="evenodd" clip-rule="evenodd" d="M51.774 65.0901C53.0736 65.0901 53.987 66.1347 53.987 67.6905C53.987 69.2311 53.0736 70.2757 51.774 70.2757C50.4821 70.2757 49.5679 69.2311 49.5679 67.6905C49.5679 66.1347 50.4821 65.0901 51.774 65.0901ZM51.7748 69.8096C52.7777 69.8096 53.5059 69.0236 53.5059 67.6906C53.5059 66.3415 52.7777 65.5572 51.7748 65.5572C50.7719 65.5572 50.0513 66.3415 50.0513 67.6906C50.0513 69.0236 50.7719 69.8096 51.7748 69.8096Z" fill="#333376"/>
<path fill-rule="evenodd" clip-rule="evenodd" d="M8.16488 65.0901C9.46366 65.0901 10.3778 66.1347 10.3778 67.6905C10.3778 69.2311 9.46366 70.2757 8.16488 70.2757C6.87207 70.2757 5.95874 69.2311 5.95874 67.6905C5.95874 66.1347 6.87207 65.0901 8.16488 65.0901ZM8.16527 69.8096C9.16814 69.8096 9.89556 69.0236 9.89556 67.6906C9.89556 66.3415 9.16814 65.5572 8.16527 65.5572C7.1624 65.5572 6.44181 66.3415 6.44181 67.6906C6.44181 69.0236 7.1624 69.8096 8.16527 69.8096Z" fill="#333376"/>
<path fill-rule="evenodd" clip-rule="evenodd" d="M39.188 70.2015V65.1648H42.4703V65.6012H39.6562V67.3569H42.0107V67.7941H39.6562V69.7642H42.4703V70.2015H39.188ZM40.9858 64.5642H40.5552L41.0754 63.5486H41.5649L40.9858 64.5642Z" fill="#333376"/>
<path fill-rule="evenodd" clip-rule="evenodd" d="M79.8024 56.4292V60.4212H78.438V54.123H79.6268L82.2926 58.1253V54.123H83.6758V60.4212H82.4682L79.8024 56.4292Z" fill="#333376"/>
<path fill-rule="evenodd" clip-rule="evenodd" d="M97.0142 60.4223V54.1224H101.361V55.327H98.3326V56.614H100.785V57.7819H98.3326V59.2272H101.361V60.4223H97.0142Z" fill="#333376"/>
<path fill-rule="evenodd" clip-rule="evenodd" d="M91.7383 60.4223V54.1224H93.113V59.2272H95.7788V60.4223H91.7383Z" fill="#333376"/>
<path fill-rule="evenodd" clip-rule="evenodd" d="M68.4429 60.4223H69.8184V54.1224H68.4429V60.4223Z" fill="#333376"/>
<path fill-rule="evenodd" clip-rule="evenodd" d="M86.9171 54.1223H88.5144L90.5312 60.4221H89.1659L88.8129 59.1896H86.5828L86.2213 60.4221H84.856L86.9171 54.1223ZM86.9263 58.1808H88.4775L87.716 55.4842L86.9263 58.1808Z" fill="#333376"/>
<path fill-rule="evenodd" clip-rule="evenodd" d="M74.118 54.0292C75.8176 54.0292 76.8955 55.3826 76.8955 57.2812C76.8955 59.1714 75.8176 60.5154 74.118 60.5154C72.4278 60.5154 71.3687 59.1714 71.3687 57.2812C71.3687 55.3826 72.4278 54.0292 74.118 54.0292ZM74.1188 59.2267C74.9648 59.2267 75.5404 58.6159 75.5404 57.2813C75.5404 55.9287 74.9648 55.318 74.1188 55.318C73.2831 55.318 72.716 55.9287 72.716 57.2813C72.716 58.6159 73.2831 59.2267 74.1188 59.2267Z" fill="#333376"/>
</g>
</svg>
